<svg width="292" height="157" viewBox="0 0 292 157" fill="none" xmlns="http://www.w3.org/2000/svg">
<path d="M276.666 57.5745H185.281C176.826 57.5745 169.945 50.6401 169.945 42.1143V19.3869C169.945 10.8611 176.826 3.9267 185.281 3.9267H250.505C251.428 3.9267 252.178 4.68379 252.178 5.61449C252.178 6.54519 251.428 7.30229 250.505 7.30229H185.281C178.672 7.30229 173.293 12.7225 173.293 19.3917V42.1143C173.293 48.7787 178.672 54.2037 185.281 54.2037H276.666C283.274 54.2037 288.654 48.7835 288.654 42.1143V19.3869C288.654 12.7225 283.279 7.29747 276.666 7.29747C275.743 7.29747 274.992 6.54037 274.992 5.60967C274.992 4.67897 275.743 3.92188 276.666 3.92188C285.12 3.92188 292.001 10.8611 292.001 19.3869V42.1095C292.001 50.6352 285.125 57.5745 276.666 57.5745Z" fill="#CCDAFC"/>
<path d="M230.852 29.4907C228.958 29.4907 227.065 28.7625 225.625 27.311L221.613 23.2651C220.82 22.4646 219.768 22.0451 218.644 22.074C217.52 22.103 216.492 22.5852 215.741 23.4291L212.772 26.7757C211.404 28.3189 209.52 29.1965 207.469 29.2544C205.413 29.3123 203.49 28.5359 202.037 27.0747L198.025 23.0288C197.26 22.2573 196.246 21.8329 195.165 21.8329C194.084 21.8329 193.071 22.2573 192.306 23.0288C191.65 23.6895 190.594 23.6895 189.939 23.0288C189.283 22.3682 189.283 21.3025 189.939 20.6418C192.822 17.734 197.508 17.734 200.392 20.6418L204.404 24.6877C205.197 25.4882 206.254 25.9126 207.373 25.8788C208.497 25.8499 209.525 25.3676 210.276 24.5237L213.245 21.1771C214.613 19.634 216.497 18.7563 218.548 18.6984C220.6 18.6454 222.527 19.417 223.98 20.8781L227.992 24.924C229.57 26.5153 232.133 26.5153 233.711 24.924L237.953 20.6466C240.836 17.7388 245.522 17.7388 248.406 20.6466L252.418 24.6925C253.212 25.493 254.273 25.9174 255.387 25.8836C256.511 25.8547 257.539 25.3725 258.29 24.5286L261.259 21.1819C262.627 19.6388 264.511 18.7611 266.563 18.7033C268.619 18.6502 270.541 19.4218 271.995 20.8829C272.65 21.5436 272.65 22.6093 271.995 23.2699C271.34 23.9306 270.283 23.9306 269.628 23.2699C268.834 22.4695 267.782 22.0451 266.658 22.0788C265.534 22.1126 264.506 22.59 263.756 23.4339L260.786 26.7806C259.418 28.3237 257.534 29.2013 255.483 29.2592C253.422 29.3171 251.505 28.5407 250.051 27.0795L246.039 23.0337C244.461 21.4423 241.898 21.4423 240.32 23.0337L236.078 27.311C234.639 28.7625 232.745 29.4907 230.852 29.4907Z" fill="#CCDAFC"/>
<path d="M230.852 40.8146C228.958 40.8146 227.065 40.0864 225.625 38.6349L221.613 34.5891C220.82 33.7886 219.758 33.3642 218.644 33.398C217.52 33.4269 216.492 33.9091 215.741 34.753L212.772 38.0997C211.404 39.6428 209.52 40.5205 207.469 40.5783C205.413 40.6314 203.49 39.8598 202.037 38.3987L198.025 34.3528C197.26 33.5812 196.246 33.1568 195.165 33.1568C194.084 33.1568 193.071 33.5812 192.306 34.3528C191.65 35.0134 190.594 35.0134 189.939 34.3528C189.283 33.6921 189.283 32.6264 189.939 31.9657C191.335 30.5576 193.19 29.7812 195.165 29.7812C197.14 29.7812 198.995 30.5576 200.392 31.9657L204.404 36.0116C205.197 36.8121 206.249 37.2365 207.373 37.2027C208.497 37.169 209.525 36.6916 210.276 35.8477L213.245 32.501C214.613 30.9579 216.497 30.0802 218.548 30.0224C220.6 29.9645 222.527 30.7409 223.98 32.202L227.992 36.2479C229.57 37.8393 232.133 37.8393 233.711 36.2479L237.953 31.9706C240.836 29.0627 245.522 29.0627 248.406 31.9706L252.418 36.0164C253.212 36.8169 254.264 37.2413 255.387 37.2076C256.511 37.1786 257.539 36.6964 258.29 35.8525L261.259 32.5058C262.627 30.9627 264.511 30.0851 266.563 30.0272C268.619 29.9693 270.541 30.7457 271.995 32.2069C272.65 32.8675 272.65 33.9332 271.995 34.5939C271.34 35.2545 270.283 35.2545 269.628 34.5939C268.834 33.7934 267.782 33.369 266.658 33.4028C265.534 33.4365 264.506 33.9139 263.756 34.7578L260.786 38.1045C259.418 39.6476 257.534 40.5253 255.483 40.5831C253.432 40.6362 251.505 39.8646 250.051 38.4035L246.039 34.3576C244.461 32.7662 241.898 32.7662 240.32 34.3576L236.078 38.6349C234.639 40.0864 232.745 40.8146 230.852 40.8146Z" fill="#CCDAFC"/>
<path d="M269.363 8.22856C269.951 8.8217 269.951 9.78133 269.363 10.3745C269.071 10.6734 268.684 10.8181 268.301 10.8181C267.919 10.8181 267.532 10.6734 267.24 10.3745L264.648 7.7608L262.056 10.3745C261.765 10.6734 261.377 10.8181 260.995 10.8181C260.612 10.8181 260.225 10.6734 259.933 10.3745C259.345 9.78133 259.345 8.8217 259.933 8.22856L262.525 5.61488L259.933 3.00121C259.345 2.40807 259.345 1.44844 259.933 0.855301C260.521 0.266983 261.473 0.266983 262.061 0.855301L264.653 3.46897L267.245 0.855301C267.833 0.266983 268.784 0.266983 269.373 0.855301C269.961 1.44844 269.961 2.40807 269.373 3.00121L266.781 5.61488L269.373 8.22856H269.363Z" fill="#FECA4D"/>
<path d="M271.911 156.838H83.2031L99.2543 122.338C112.038 94.8434 139.347 77.2969 169.354 77.2969H184.6C213.199 77.2969 239.466 93.2526 252.948 118.789L271.923 156.838H271.911Z" fill="#FECA4D"/>
<path d="M196.654 79.3798L172.766 106.649L155.508 79.3798L157.804 70.9983C158.076 70.0011 158.988 69.3125 160.018 69.3125H190.262C191.138 69.3125 191.931 69.8111 192.321 70.5947L196.654 79.3917V79.3798Z" fill="#595959"/>
<path d="M196.653 80.3704H179.927C179.62 80.3704 179.336 80.228 179.146 79.9905L172.884 71.8227L166.753 79.9905C166.563 80.2398 166.279 80.3823 165.971 80.3823H156.147C155.602 80.3823 155.164 79.943 155.164 79.3969C155.164 78.8508 155.602 78.4116 156.147 78.4116H165.486L172.103 69.6027C172.292 69.3534 172.577 69.2228 172.884 69.2109C173.192 69.2109 173.476 69.3534 173.666 69.5908L180.425 78.4116H196.665C197.21 78.4116 197.648 78.8508 197.648 79.3969C197.648 79.943 197.21 80.3823 196.665 80.3823L196.653 80.3704Z" fill="white"/>
<path d="M172.669 88.2506C174.016 88.2506 175.107 87.1556 175.107 85.805C175.107 84.4543 174.016 83.3594 172.669 83.3594C171.322 83.3594 170.23 84.4543 170.23 85.805C170.23 87.1556 171.322 88.2506 172.669 88.2506Z" fill="white"/>
<path d="M221.829 141.624C221.557 141.624 221.272 141.529 221.059 141.327C220.586 140.899 220.562 140.175 220.988 139.7L226.303 133.869C226.729 133.394 227.463 133.37 227.925 133.798C228.398 134.225 228.422 134.95 227.996 135.425L222.681 141.256C222.456 141.505 222.148 141.636 221.829 141.636V141.624Z" fill="white"/>
<path d="M221.828 156.848H220.68V131.316C220.68 130.675 221.189 130.164 221.828 130.164C222.467 130.164 222.976 130.675 222.976 131.316V156.848H221.828Z" fill="white"/>
<path d="M186.114 57.7233L190.21 69.3102H160.049V60.7506H159.125C155.539 60.7506 152.65 57.842 152.65 54.2567V41.1978C152.65 37.2444 155.846 34.0391 159.788 34.0391H169.14C171.01 34.0391 172.537 35.5468 172.549 37.4225L172.572 40.8653C172.572 41.9932 173.046 43.0023 173.78 43.7383C174.514 44.4744 176.088 44.9255 177.201 44.9255L178.1 49.8523L178.42 48.8907C179.308 46.2077 181.805 44.415 184.623 44.415C188.233 44.415 191.157 47.3473 191.157 50.9682V51.3363C191.157 54.4467 188.99 57.0585 186.09 57.7233H186.114Z" fill="white"/>
<path d="M185.348 53.1729C185.348 53.1729 185.23 53.1729 185.17 53.1492L182.626 52.5912C182.33 52.5318 182.093 52.3063 182.01 52.0095C181.927 51.7127 182.01 51.404 182.235 51.1903L184.235 49.279C184.567 48.9703 185.088 48.9822 185.395 49.3027C185.703 49.6351 185.691 50.1575 185.372 50.4661L184.496 51.309L185.537 51.5346C185.975 51.6296 186.26 52.0688 186.165 52.5081C186.082 52.888 185.739 53.161 185.36 53.161L185.348 53.1729Z" fill="#004D89"/>
<path d="M167.248 47.1366C166.798 47.1366 166.431 46.7686 166.431 46.3174C166.431 45.8663 166.147 45.4508 165.827 45.4508C165.507 45.4508 165.223 45.8544 165.223 46.3174C165.223 46.7804 164.856 47.1366 164.407 47.1366C163.957 47.1366 163.59 46.7686 163.59 46.3174C163.59 44.9284 164.596 43.8125 165.827 43.8125C167.058 43.8125 168.064 44.9403 168.064 46.3174C168.064 46.7686 167.697 47.1366 167.248 47.1366Z" fill="#004D89"/>
<path d="M157.316 47.1366C156.866 47.1366 156.499 46.7686 156.499 46.3174C156.499 45.8663 156.215 45.4508 155.895 45.4508C155.576 45.4508 155.292 45.8544 155.292 46.3174C155.292 46.7804 154.925 47.1366 154.475 47.1366C154.025 47.1366 153.658 46.7686 153.658 46.3174C153.658 44.9284 154.664 43.8125 155.895 43.8125C157.126 43.8125 158.133 44.9403 158.133 46.3174C158.133 46.7686 157.766 47.1366 157.316 47.1366Z" fill="#004D89"/>
<path d="M161.955 52.0674H158.298C158.049 52.0674 157.8 51.9487 157.646 51.7469C157.493 51.5451 157.433 51.2839 157.504 51.0346L159.777 42.012C159.884 41.5728 160.334 41.2997 160.771 41.4184C161.209 41.5253 161.482 41.9764 161.363 42.4157L159.351 50.4173H161.955C162.405 50.4173 162.772 50.7853 162.772 51.2364C162.772 51.6875 162.405 52.0556 161.955 52.0556V52.0674Z" fill="#004D89"/>
<path d="M186.838 59.5567H183.275C182.731 59.5567 182.293 59.1174 182.293 58.5713C182.293 58.0252 182.731 57.5859 183.275 57.5859H186.838C187.383 57.5859 187.821 58.0252 187.821 58.5713C187.821 59.1174 187.383 59.5567 186.838 59.5567Z" fill="#91E6F0"/>
<path d="M169.448 55.221C171.331 55.221 172.857 53.6902 172.857 51.8019C172.857 49.9136 171.331 48.3828 169.448 48.3828C167.565 48.3828 166.039 49.9136 166.039 51.8019C166.039 53.6902 167.565 55.221 169.448 55.221Z" fill="#91E6F0"/>
<path d="M185.487 32.9846C185.487 33.5307 185.049 33.97 184.504 33.97H182.457C183.131 35.0978 183.475 36.4274 183.392 37.8046L183.001 44.6071C180.894 45.1532 179.142 46.744 178.432 48.8809L178.266 49.3558L178.337 54.7575C178.408 59.5774 174.526 63.5307 169.708 63.5307H157.362C154.746 63.5307 152.627 61.4057 152.627 58.782V56.0515C152.627 53.6415 154.58 51.7064 156.983 51.7183L160.984 51.7539C162.783 51.7658 164.511 52.4544 165.849 53.6771L166.891 54.6269C168.359 55.9803 170.596 56.0278 172.123 54.7456L174.384 52.858C175.2 52.1694 175.674 51.1603 175.674 50.0919V44.6902C174.928 44.4884 174.206 44.156 173.768 43.7286C173.034 42.9925 172.573 41.9834 172.561 40.8556L172.537 37.4128C172.537 36.2375 171.922 35.2046 171.022 34.5992C170.88 34.5042 170.738 34.4211 170.584 34.3499C170.146 34.1362 169.637 34.0056 169.116 34.0056L157.172 33.9462C155.918 33.9462 154.781 33.4239 153.953 32.6047C153.136 31.7737 152.627 30.634 152.627 29.3756C152.627 26.3245 155.551 24.1283 158.475 24.983L178.539 30.9189C179.58 31.2276 180.492 31.7618 181.237 32.4623V30.4678C181.237 29.9217 181.675 29.4824 182.22 29.4824C182.764 29.4824 183.202 29.9217 183.202 30.4678V31.9755H184.481C185.025 31.9755 185.463 32.4148 185.463 32.9609L185.487 32.9846Z" fill="#595959"/>
<path d="M0 156.852C9.03176 123.528 36.7426 99.2734 69.5197 99.2734C102.297 99.2734 129.688 123.836 138.874 156.852H0Z" fill="#5798F7"/>
<path d="M74.4316 121.521C72.8217 121.521 71.5078 120.203 71.5078 118.589C71.5078 116.974 72.8217 115.656 74.4316 115.656C76.0414 115.656 77.3554 116.974 77.3554 118.589C77.3554 120.203 76.0414 121.521 74.4316 121.521ZM74.4316 117.627C73.9108 117.627 73.4728 118.054 73.4728 118.589C73.4728 119.123 73.8989 119.55 74.4316 119.55C74.9643 119.55 75.3904 119.123 75.3904 118.589C75.3904 118.054 74.9643 117.627 74.4316 117.627Z" fill="#FFB400"/>
<path d="M74.4316 143.115C72.8217 143.115 71.5078 141.797 71.5078 140.182C71.5078 138.568 72.8217 137.25 74.4316 137.25C76.0414 137.25 77.3554 138.568 77.3554 140.182C77.3554 141.797 76.0414 143.115 74.4316 143.115ZM74.4316 139.221C73.9108 139.221 73.4728 139.648 73.4728 140.182C73.4728 140.717 73.8989 141.144 74.4316 141.144C74.9643 141.144 75.3904 140.717 75.3904 140.182C75.3904 139.648 74.9643 139.221 74.4316 139.221Z" fill="#FFB400"/>
<path d="M98.1783 156.61C97.6457 156.61 97.1722 156.242 97.0538 155.695C96.9236 155.078 97.326 154.461 97.9416 154.33C100.901 153.713 103.422 151.956 105.044 149.391C106.666 146.827 107.175 143.788 106.464 140.844L104.961 134.54C104.819 133.923 105.198 133.305 105.813 133.151C106.429 132.997 107.044 133.388 107.198 134.006L108.702 140.31C109.542 143.871 108.938 147.539 106.985 150.626C105.032 153.713 101.99 155.838 98.4151 156.586C98.3322 156.598 98.2612 156.61 98.1783 156.61Z" fill="#FFB400"/>
<path d="M37.8311 156.61C37.2747 156.61 36.7894 156.206 36.6947 155.648L34.4812 142.304C34.3746 141.675 34.8008 141.081 35.4281 140.974C36.0555 140.879 36.6474 141.295 36.7539 141.924L38.9675 155.268C39.074 155.897 38.6479 156.491 38.0205 156.598C37.9613 156.598 37.8903 156.61 37.8311 156.61Z" fill="#FFB400"/>
<path d="M74.621 102.381C72.6679 106.975 67.0689 109.777 62.4998 108.103L47.8809 102.737L56.7824 91.625L74.4198 101.728L81.6641 93.0259L87.5354 101.787L86.3753 104.007C84.3867 107.794 79.1665 108.257 76.5505 104.874L74.621 102.393V102.381Z" fill="#FFB400"/>
<path d="M56.7832 91.6305L63.9565 78.0966L60.9736 77.1587C58.6061 76.4108 57.0081 74.2145 57.0081 71.7333V71.1397C57.0081 67.9937 59.5413 65.4531 62.6781 65.4413C64.939 65.4413 66.9868 66.7828 67.8983 68.8722L69.4371 72.4456C69.4371 72.4456 76.8827 69.3352 75.2018 60.9062C75.2018 60.9062 82.9552 64.4084 88.7791 60.9062C88.7791 60.9062 93.6678 71.2585 87.8321 84.3293C86.9798 86.2288 84.9912 87.3566 82.9315 87.1429L81.6768 87.0123V93.0551L74.4324 101.757L56.795 91.6542L56.7832 91.6305Z" fill="white"/>
<path d="M81.6655 86.9856C81.6655 86.9856 78.6825 85.9172 73.5215 82.3438L81.6655 93.0165V86.9737V86.9856Z" fill="#004D89"/>
<path d="M75.2004 60.8887C76.8813 69.3177 69.4357 72.4281 69.4357 72.4281L67.8969 68.8547C67.2813 67.4301 66.1213 66.3497 64.7363 65.8036V63.3937C64.7363 57.3509 70.2288 52.7921 76.1355 53.9556C80.7402 54.8697 85.9249 57.1135 88.7776 60.8768C82.9537 64.379 75.2004 60.8768 75.2004 60.8768V60.8887Z" fill="#5798F7"/>
<path d="M66.8827 54.2335C69.0335 54.2335 70.7771 52.4848 70.7771 50.3277C70.7771 48.1706 69.0335 46.4219 66.8827 46.4219C64.7319 46.4219 62.9883 48.1706 62.9883 50.3277C62.9883 52.4848 64.7319 54.2335 66.8827 54.2335Z" fill="#FFB400"/>
<path d="M65.6616 41.8607L64.2412 26.7123C63.8387 22.3909 58.6067 20.4796 55.529 23.5306L43.0645 35.8536C39.9868 38.9046 41.8097 44.1638 46.1066 44.6387L61.1754 46.2889C63.7322 46.5738 65.8984 44.425 65.6616 41.8607Z" fill="#5798F7"/>
<path d="M88.296 78.3653H85.1C84.6502 78.3653 84.2832 77.9973 84.2832 77.5462C84.2832 77.0951 84.6502 76.727 85.1 76.727H87.2662L85.4077 68.8679C85.3012 68.4286 85.5735 67.9775 86.0114 67.8825C86.4494 67.7757 86.8992 68.0487 86.9939 68.488L89.0891 77.3681C89.1483 77.6174 89.0891 77.8667 88.9352 78.0685C88.7813 78.2704 88.5446 78.3772 88.296 78.3772V78.3653Z" fill="#004D89"/>
<path d="M82.1164 72.822C81.6666 72.822 81.2996 72.4539 81.2996 72.0028C81.2996 71.6229 80.9918 71.3142 80.6131 71.3142C80.2343 71.3142 79.9265 71.6229 79.9265 72.0028C79.9265 72.4539 79.5595 72.822 79.1097 72.822C78.6599 72.822 78.293 72.4539 78.293 72.0028C78.293 70.7088 79.3346 69.6641 80.6249 69.6641C81.9151 69.6641 82.9568 70.7088 82.9568 72.0028C82.9568 72.4539 82.5899 72.822 82.14 72.822H82.1164Z" fill="#004D89"/>
<path d="M64.7275 74.1935H62.5257C62.0759 74.1935 61.709 73.8255 61.709 73.3744C61.709 72.9233 62.0759 72.5552 62.5257 72.5552H63.1886L62.3955 71.3562C62.147 70.9763 62.2417 70.4658 62.6204 70.2165C62.9992 69.9672 63.5082 70.0621 63.7568 70.442L65.4022 72.9114C65.5679 73.1607 65.5916 73.4931 65.4377 73.7543C65.2956 74.0273 65.0116 74.1935 64.7156 74.1935H64.7275Z" fill="#004D89"/>
<path d="M83.2294 81.2018C82.3771 81.2018 81.146 80.9999 80.1636 80.0265L79.8558 80.3707C79.548 80.7032 79.0272 80.7269 78.6958 80.4182C78.3643 80.1096 78.3406 79.5872 78.6484 79.2548L79.6072 78.2101C79.7848 78.0201 80.0334 77.9252 80.2938 77.9489C80.5542 77.9726 80.7791 78.127 80.9093 78.3407C81.8563 79.9315 83.7976 79.516 83.8804 79.5041C84.3184 79.4091 84.7564 79.6822 84.8629 80.1214C84.9576 80.5607 84.6972 80.9999 84.2474 81.1068C84.2 81.1068 83.7976 81.2018 83.2294 81.2018Z" fill="#004D89"/>
<path d="M75.8886 80.3852C77.6079 80.3852 79.0017 78.9873 79.0017 77.2629C79.0017 75.5385 77.6079 74.1406 75.8886 74.1406C74.1692 74.1406 72.7754 75.5385 72.7754 77.2629C72.7754 78.9873 74.1692 80.3852 75.8886 80.3852Z" fill="#91E6F0"/>
<path d="M63.9551 80.0505C65.0338 80.0505 65.9082 79.1735 65.9082 78.0917C65.9082 77.0098 65.0338 76.1328 63.9551 76.1328C62.8764 76.1328 62.002 77.0098 62.002 78.0917C62.002 79.1735 62.8764 80.0505 63.9551 80.0505Z" fill="#FFB400"/>
</svg>
