<svg width="286" height="162" viewBox="0 0 286 162" fill="none" xmlns="http://www.w3.org/2000/svg">
<mask id="mask0_605_1678" style="mask-type:alpha" maskUnits="userSpaceOnUse" x="31" y="0" width="255" height="162">
<rect x="31.9375" width="254.061" height="161.147" fill="#D9D9D9"/>
</mask>
<g mask="url(#mask0_605_1678)">
<path d="M212.806 148.95C209.482 152.464 206.336 154.73 203.851 156.52C174.64 177.565 140.074 171.431 132.728 169.933C121.881 167.721 100.912 163.445 85.7518 145.544C62.8163 118.463 66.3877 75.7969 84.1784 47.6329C87.4323 42.4808 104.622 13.8877 139.559 9.30241C160.703 6.52725 185.35 12.1244 203.198 27.1385C240.664 58.6546 237.997 122.323 212.806 148.95Z" fill="#EEF2FF"/>
<path d="M187.029 101.256C187.029 101.256 186.553 81.1817 195.763 75.8088C204.971 70.436 222.481 67.0768 223.137 38.251C223.522 21.3752 223.938 13.9969 224.216 10.7796C224.325 9.52439 223.214 8.51131 221.981 8.74455C213.26 10.3944 184.927 17.1846 178.986 36.6011C171.944 59.6202 187.029 101.256 187.029 101.256H187.029Z" fill="#91B3FA"/>
<path d="M215.234 16.7716C205.66 25.3446 194.59 40.5171 188.689 55.6897C187.932 58.1901 185.717 63.5077 184.754 72.9561C183.895 80.8358 184.322 89.1625 185.364 94.6742C185.43 95.0226 185.765 95.2517 186.112 95.1852C186.709 95.0713 186.629 94.4273 186.624 94.4475C185.434 85.0306 185.928 73.3092 188.654 62.7338C192.138 49.7477 199.908 37.1574 207.944 26.4793L208.771 25.4277C214.998 17.399 216.308 17.3402 215.726 16.7805C215.588 16.6482 215.373 16.647 215.234 16.7716H215.234Z" fill="#BDD0FB"/>
<path d="M175.005 138.386C173.759 138.999 186.801 122.533 190.886 96.6722C192.811 84.4861 192.836 69.2174 199.75 63.3335C205.504 58.4367 225.085 61.5282 231.491 62.7033C232.292 62.8499 232.561 63.8653 231.938 64.3911C228.866 66.9817 222.293 73.0929 220.581 79.2515C218.324 87.3693 210.637 92.5326 203.756 93.9297C196.875 95.3268 193.047 96.6829 189.695 107.732C186.343 118.782 178.546 136.643 175.005 138.386Z" fill="#FECA4D"/>
<path d="M222.481 66.1172C214.307 66.4608 205.532 70.2045 201.08 77.2273L200.659 77.8974C199.689 79.4689 194.188 90.639 191.132 99.8986C191.094 100.014 191.156 100.138 191.272 100.177C191.467 100.242 191.565 100.026 191.546 100.045C193.674 94.8142 196.732 88.1825 199.167 83.2227C201.778 77.8107 203.605 74.1459 209.562 70.6354C216.192 66.8549 222.524 66.4656 222.506 66.4697C222.603 66.4596 222.673 66.373 222.663 66.2762C222.653 66.1831 222.572 66.1142 222.481 66.1178V66.1172Z" fill="url(#paint0_linear_605_1678)"/>
<path d="M101.025 47.5759C101.025 42.3906 105.212 38.1875 110.376 38.1875H189.893C194.28 38.1875 197.897 41.6392 198.121 46.0382L203.99 161.791C204.164 165.233 201.466 168.137 198.034 168.199L106.897 169.862C103.672 169.921 101.025 167.312 101.025 164.073V47.5759Z" fill="#8FBDFF"/>
<path d="M120.218 167.904H120.216L110.018 167.772C106.608 167.728 103.834 164.906 103.834 161.482V146.023C103.834 145.902 103.932 145.805 104.052 145.805C104.171 145.805 104.269 145.903 104.269 146.023V161.482C104.269 164.668 106.85 167.294 110.023 167.335L120.221 167.467C120.341 167.468 120.437 167.568 120.436 167.688C120.434 167.808 120.337 167.904 120.218 167.904Z" fill="#91B3FA"/>
<path d="M104.052 141.448C103.932 141.448 103.834 141.35 103.834 141.23V138.726C103.834 138.605 103.932 138.508 104.052 138.508C104.171 138.508 104.269 138.606 104.269 138.726V141.23C104.269 141.351 104.171 141.448 104.052 141.448Z" fill="url(#paint1_linear_605_1678)"/>
<path d="M107.541 39.9874C107.532 38.3286 108.985 37.0443 110.622 37.2674C121.481 38.7458 158.821 43.3187 189.694 40.9394C191.102 40.8308 192.324 41.902 192.399 43.3175L198.553 159.586C198.638 161.18 197.425 162.543 195.838 162.638C182.853 163.409 129.379 166.392 110.306 164.386C109.145 164.264 108.263 163.283 108.257 162.111L107.542 39.9874H107.541Z" fill="#C8D7FC"/>
<path d="M108.821 42.8994C108.811 41.3029 110.21 40.0673 111.785 40.2821C122.235 41.7047 158.169 46.1055 187.88 43.8158C189.235 43.7113 190.411 44.7422 190.483 46.1043L196.405 157.995C196.486 159.529 195.32 160.841 193.792 160.932C181.296 161.674 129.836 164.545 111.481 162.614C110.364 162.497 109.515 161.553 109.509 160.425L108.82 42.9L108.821 42.8994Z" fill="white"/>
<path opacity="0.78" d="M118.493 51.5247L119.603 75.513C119.64 76.3106 120.282 76.9451 121.078 76.9676C125.503 77.0929 139.29 77.4305 147.075 77.0228C147.956 76.9765 148.652 76.2614 148.682 75.3765C148.83 70.8778 149.155 57.7843 148.134 52.3105C147.969 51.4262 147.212 50.7787 146.317 50.7473L120.164 49.8291C119.221 49.7959 118.45 50.5781 118.494 51.5247H118.493Z" fill="#D7D7D7"/>
<g opacity="0.6">
<path d="M183.967 53.6247C184.455 53.6247 184.845 53.2626 184.832 52.8199C184.819 52.3771 184.409 52.008 183.92 51.9991L155.157 51.4845C154.668 51.4756 154.401 51.8477 154.563 52.3107L154.729 52.7825C154.891 53.2454 155.424 53.6247 155.913 53.6247H183.968H183.967Z" fill="#E0E0E0"/>
</g>
<g opacity="0.6">
<path d="M155.155 55.9533C154.666 55.9444 154.399 56.3165 154.561 56.7794L154.727 57.2512C154.889 57.7142 155.423 58.0934 155.911 58.0934H183.966C184.455 58.0934 184.844 57.7314 184.832 57.2886C184.819 56.8459 184.409 56.4767 183.92 56.4678L155.156 55.9533H155.155Z" fill="#E0E0E0"/>
</g>
<g opacity="0.6">
<path d="M155.155 60.4845C154.666 60.4756 154.399 60.8477 154.561 61.3107L154.727 61.7825C154.889 62.2454 155.423 62.6247 155.911 62.6247H183.966C184.455 62.6247 184.844 62.2626 184.832 61.8199C184.819 61.3771 184.409 61.008 183.92 60.9991L155.156 60.4845H155.155Z" fill="#E0E0E0"/>
</g>
<g opacity="0.6">
<path d="M186.746 84.5006C187.234 84.5006 187.611 84.1386 187.582 83.6959C187.553 83.2531 187.129 82.8881 186.64 82.884L119.368 82.3516C118.879 82.3474 118.728 82.659 119.032 83.043L119.635 83.8021C119.939 84.1861 120.589 84.5006 121.078 84.5006H186.746Z" fill="#E0E0E0"/>
</g>
<g opacity="0.6">
<path d="M119.368 86.8438C118.879 86.8396 118.728 87.1512 119.032 87.5352L119.635 88.2943C119.939 88.6783 120.589 88.9928 121.078 88.9928H186.746C187.234 88.9928 187.611 88.6308 187.582 88.188C187.553 87.7453 187.129 87.3803 186.64 87.3761L119.368 86.8438Z" fill="#E0E0E0"/>
</g>
<g opacity="0.6">
<path d="M130.438 96.6883C129.949 96.6675 129.609 97.0486 129.682 97.534L129.843 98.6136C129.916 99.0991 130.375 99.4961 130.864 99.4961H145.874C146.363 99.4961 146.758 99.0943 146.752 98.6035L146.748 98.2646C146.742 97.7738 146.337 97.3554 145.848 97.3346L130.438 96.6877V96.6883Z" fill="#E0E0E0"/>
</g>
<path d="M152.593 94.2758C154.208 94.1518 157.234 94.0936 158.899 94.0705C159.604 94.0604 160.223 94.5405 160.389 95.2296C160.71 96.5673 161.154 98.8902 161.098 101.351C161.081 102.089 160.479 102.677 159.745 102.669L153.6 102.602C152.845 102.594 152.217 102.014 152.147 101.259L151.606 95.4545C151.55 94.8539 151.994 94.3221 152.593 94.2764V94.2758Z" fill="#E0E0E0"/>
<g opacity="0.6">
<path d="M163.914 96.6883C163.425 96.6675 163.086 97.0486 163.158 97.534L163.32 98.6136C163.392 99.0991 163.852 99.4961 164.341 99.4961H179.351C179.839 99.4961 180.235 99.0943 180.228 98.6035L180.224 98.2646C180.218 97.7738 179.813 97.3554 179.325 97.3346L163.914 96.6877V96.6883Z" fill="#E0E0E0"/>
</g>
<g opacity="0.6">
<path d="M117.229 114.158C117.439 114.783 118.165 115.217 118.991 115.211L186.303 114.762C187.064 114.756 187.674 114.265 187.657 113.669C187.641 113.09 187.038 112.626 186.298 112.623L118.984 112.383C117.796 112.379 116.926 113.258 117.229 114.157V114.158Z" fill="#E0E0E0"/>
</g>
<g opacity="0.6">
<path d="M117.229 126.361C117.439 126.986 118.165 127.42 118.991 127.414L186.303 126.965C187.064 126.959 187.674 126.468 187.657 125.872C187.641 125.293 187.038 124.829 186.298 124.826L118.984 124.586C117.796 124.582 116.926 125.461 117.229 126.36V126.361Z" fill="#E0E0E0"/>
</g>
<g opacity="0.6">
<path d="M117.229 138.549C117.439 139.174 118.165 139.607 118.991 139.601L186.303 139.152C187.064 139.147 187.674 138.655 187.657 138.06C187.641 137.48 187.038 137.017 186.298 137.014L118.984 136.773C117.796 136.769 116.926 137.648 117.229 138.547V138.549Z" fill="#E0E0E0"/>
</g>
<g opacity="0.6">
<path d="M117.229 150.752C117.439 151.377 118.165 151.81 118.991 151.805L186.303 151.355C187.064 151.35 187.674 150.859 187.657 150.263C187.641 149.683 187.038 149.22 186.298 149.217L118.984 148.977C117.796 148.972 116.926 149.851 117.229 150.751V150.752Z" fill="#E0E0E0"/>
</g>
<path d="M155.067 22.413C152.195 20.4064 149.698 20.4462 147.939 20.9673C146.336 21.4426 145.296 22.997 145.448 24.6688L146.207 32.9783L155.229 33.7825C155.229 33.7825 160.7 26.3478 155.067 22.413ZM151.1 29.1165C149.857 29.1165 148.85 28.1051 148.85 26.8576C148.85 25.6101 149.857 24.5988 151.1 24.5988C152.342 24.5988 153.35 25.6101 153.35 26.8576C153.35 28.1051 152.342 29.1165 151.1 29.1165Z" fill="#FECA4D"/>
<path d="M147.109 29.4929C146.998 29.4929 146.903 29.4075 146.893 29.2941L146.772 27.9706C146.761 27.8501 146.85 27.7439 146.969 27.7332C147.091 27.722 147.195 27.811 147.206 27.9309L147.326 29.2543C147.337 29.3748 147.249 29.4811 147.129 29.4917C147.122 29.4923 147.116 29.4923 147.109 29.4923V29.4929ZM146.873 26.9C146.762 26.9 146.666 26.8145 146.656 26.7012L146.565 25.6964C146.419 24.1034 147.418 22.6209 148.938 22.1699C150.015 21.8506 151.124 21.8049 152.236 22.034C152.353 22.0583 152.43 22.174 152.405 22.2921C152.381 22.4102 152.267 22.4856 152.148 22.4625C151.107 22.2488 150.069 22.2909 149.062 22.5895C147.74 22.9812 146.872 24.2714 146.999 25.6566L147.09 26.6614C147.102 26.7819 147.013 26.8881 146.893 26.8988C146.886 26.8994 146.88 26.8994 146.873 26.8994L146.873 26.9Z" fill="#91B3FA"/>
<path d="M133.889 38.3441V34.1666C133.889 32.7244 135.08 31.5694 136.515 31.6187L165.201 32.6057C166.474 32.6496 167.505 33.6585 167.582 34.9351L167.821 38.9495L133.889 38.3447L133.889 38.3441Z" fill="#FECA4D"/>
<path d="M144.586 33.1946H143.352C143.232 33.1946 143.135 33.0967 143.135 32.9762C143.135 32.8557 143.232 32.7578 143.352 32.7578H144.586C144.706 32.7578 144.803 32.8557 144.803 32.9762C144.803 33.0967 144.706 33.1946 144.586 33.1946Z" fill="#91B3FA"/>
<path d="M135.448 37.0345C135.328 37.0345 135.23 36.9366 135.23 36.8161V35.1258C135.23 33.8202 136.289 32.7578 137.589 32.7578H142.124C142.244 32.7578 142.342 32.8557 142.342 32.9762C142.342 33.0967 142.244 33.1946 142.124 33.1946H137.589C136.529 33.1946 135.666 34.0611 135.666 35.1252V36.8155C135.666 36.9366 135.568 37.0339 135.448 37.0339V37.0345Z" fill="#91B3FA"/>
<path d="M122.203 39.4055C122.272 37.9586 123.461 36.8215 124.903 36.8215L175.067 36.8203C176.871 36.8203 178.412 38.1236 178.72 39.9082L178.763 40.1545C179.1 42.1089 177.601 43.8971 175.625 43.8971H124.16C122.978 43.8971 122.036 42.9042 122.092 41.7184L122.203 39.4055Z" fill="#C8D7FC"/>
<path d="M143.303 153.359H71.1875V170.235H143.303V153.359Z" fill="url(#paint2_linear_605_1678)"/>
<path d="M69.6836 155.312H144.571V161.338C144.571 161.589 144.368 161.793 144.118 161.793H70.2493C69.9372 161.793 69.6836 161.538 69.6836 161.225V155.312Z" fill="#737373"/>
<path d="M70.1506 152.883H144.099C144.36 152.883 144.571 153.096 144.571 153.358V155.313H69.6836V153.352C69.6836 153.093 69.8928 152.883 70.1506 152.883V152.883Z" fill="#FECA4D"/>
<path d="M212.294 168.18C213.665 165.35 212.809 162.095 210.383 160.911C207.956 159.726 204.878 161.06 203.507 163.891C202.137 166.721 202.992 169.976 205.419 171.161C207.845 172.345 210.924 171.011 212.294 168.18Z" fill="url(#paint3_linear_605_1678)"/>
<path d="M202.684 160.332L200.199 165.463C200.109 165.648 200.186 165.869 200.369 165.959L203.48 167.478C203.663 167.567 203.884 167.49 203.973 167.306L206.458 162.175C206.548 161.99 206.471 161.769 206.288 161.679L203.177 160.161C202.994 160.071 202.773 160.148 202.684 160.332Z" fill="url(#paint4_linear_605_1678)"/>
<path d="M203.272 159.688C202.827 161.985 201.811 164.037 200.266 165.862C199.432 166.847 198.093 167.289 196.761 167.021C184.031 164.454 157.351 147.897 131.441 133.434C129.723 132.475 128.537 131.388 129.346 129.717L131.133 126.027C131.937 124.367 133.861 125.301 135.668 126.047C163.075 137.353 192.144 147.208 202.123 156.326C203.081 157.201 203.508 158.476 203.272 159.688Z" fill="#737373"/>
<path d="M135.288 122.278L129.221 134.803C129.136 134.98 128.924 135.054 128.747 134.968L125.547 133.405C125.371 133.319 125.298 133.106 125.383 132.929L131.45 120.403C131.536 120.227 131.748 120.153 131.924 120.239L135.124 121.802C135.3 121.888 135.374 122.101 135.288 122.278Z" fill="#FECA4D"/>
<path d="M108.325 109.754L102.259 122.28C102.173 122.457 101.961 122.53 101.785 122.444L98.5843 120.882C98.4082 120.796 98.3349 120.583 98.4206 120.406L104.487 107.88C104.573 107.703 104.785 107.63 104.961 107.716L108.161 109.278C108.337 109.364 108.411 109.577 108.325 109.754Z" fill="#FECA4D"/>
<path d="M111.247 96.998L92.0801 136.578L118.787 149.616L137.954 110.036L111.247 96.998Z" fill="#737373"/>
<path d="M93.0921 134.475L90.6816 139.453L117.389 152.491L119.799 147.514L93.0921 134.475Z" fill="#FECA4D"/>
<path d="M118.472 150.25L117.274 152.724C116.907 153.48 116.05 153.86 115.246 153.62C106.921 151.138 98.8642 147.27 91.1121 141.823C90.4335 141.346 90.2 140.443 90.5623 139.695L91.7652 137.211L118.472 150.25Z" fill="#737373"/>
<path d="M121.01 146.868L120.331 148.271C120.25 148.438 120.049 148.507 119.883 148.426L91.8603 134.744C91.6942 134.663 91.625 134.461 91.7054 134.295L92.3846 132.892C92.4655 132.726 92.6659 132.656 92.832 132.737L120.855 146.419C121.021 146.5 121.09 146.702 121.01 146.868Z" fill="#737373"/>
<path d="M138.109 109.72L140.52 104.742L113.813 91.7041L111.402 96.6817L138.109 109.72Z" fill="#FECA4D"/>
<path d="M139.43 106.984L140.628 104.51C140.995 103.754 140.762 102.842 140.079 102.356C132.993 97.314 124.987 93.3395 115.934 90.5809C115.141 90.3394 114.29 90.7127 113.927 91.4611L112.725 93.9454L139.431 106.985L139.43 106.984Z" fill="#737373"/>
<path d="M138.172 111.419L139.171 109.357C139.26 109.173 139.184 108.951 139 108.861L111.04 95.2094C110.856 95.1197 110.635 95.1963 110.546 95.3809L109.547 97.4432C109.458 97.6272 109.534 97.8492 109.718 97.9388L137.678 111.591C137.862 111.68 138.083 111.604 138.172 111.419Z" fill="#737373"/>
</g>
<g clip-path="url(#clip0_605_1678)">
<path d="M62.3886 19.4544C62.7177 19.7814 62.7177 20.3114 62.3886 20.6365C62.2261 20.8 62.01 20.8808 61.794 20.8808C61.5779 20.8808 61.3638 20.8 61.2013 20.6365L59.7523 19.1963L58.3013 20.6365C58.1388 20.8 57.9227 20.8808 57.7066 20.8808C57.4906 20.8808 57.2765 20.8 57.114 20.6365C56.7849 20.3114 56.7849 19.7814 57.114 19.4544L58.563 18.0141L57.114 16.5739C56.7849 16.2488 56.7849 15.7188 57.114 15.3937C57.441 15.0667 57.9742 15.0667 58.3013 15.3937L59.7523 16.834L61.2013 15.3937C61.5283 15.0667 62.0616 15.0667 62.3886 15.3937C62.7177 15.7188 62.7177 16.2488 62.3886 16.5739L60.9396 18.0141L62.3886 19.4544Z" fill="#FFB400"/>
<path d="M57.7248 80.0703H14.5762V82.5181H57.7248V80.0703Z" fill="#CCDAFC"/>
<path d="M57.7248 85.5312H14.5762V87.979H57.7248V85.5312Z" fill="#CCDAFC"/>
<g clip-path="url(#clip1_605_1678)">
<path d="M36.7578 74.3394C48.6319 74.3394 58.2578 64.5204 58.2578 52.408C58.2578 40.2956 48.6319 30.4766 36.7578 30.4766C24.8837 30.4766 15.2578 40.2956 15.2578 52.408C15.2578 64.5204 24.8837 74.3394 36.7578 74.3394Z" fill="#FECA4D"/>
<path d="M15.6797 56.75C17.6559 66.7805 26.3408 74.336 36.7569 74.336C47.173 74.336 55.8595 66.7805 57.8341 56.75H15.6797Z" fill="#004D89"/>
<path d="M27.0469 56.7527L33.1389 74.0299C33.424 74.0806 33.7123 74.123 34.0021 74.1606C34.9038 74.2782 35.823 74.3387 36.7567 74.3387C38.3342 74.3387 39.8732 74.1639 41.353 73.8355L44.186 56.7527L42.1761 51.1641H29.132L27.0469 56.7527Z" fill="#CCDAFC"/>
<path d="M34.002 74.1606C34.9036 74.2782 35.8228 74.3387 36.7565 74.3387C38.7344 74.3387 40.6497 74.0658 42.469 73.5562L38.8224 59.8598L40.946 57.692C41.5017 57.1268 41.5017 56.2087 40.946 55.6418L38.0345 52.6719L35.1214 55.6418C34.5673 56.2087 34.5673 57.1268 35.1214 57.692L37.3218 59.9366L34.002 74.1606Z" fill="#004D89"/>
<path d="M33.2768 56.738H26.5586C26.2927 56.738 26.0781 56.5191 26.0781 56.2479C26.0781 55.9767 26.2927 55.7578 26.5586 55.7578H33.2768C33.5427 55.7578 33.7573 55.9767 33.7573 56.2479C33.7573 56.5191 33.5427 56.738 33.2768 56.738Z" fill="#FFB400"/>
<path d="M44.1871 56.738H42.4687C42.2029 56.738 41.9883 56.5191 41.9883 56.2479C41.9883 55.9767 42.2029 55.7578 42.4687 55.7578H44.1871C44.453 55.7578 44.6676 55.9767 44.6676 56.2479C44.6676 56.5191 44.453 56.738 44.1871 56.738Z" fill="#FFB400"/>
<path d="M29.7369 45.5831H30.7698L29.1315 51.1652H42.1756L41.8713 50.0707C43.1605 49.6557 43.9901 48.2688 43.6426 46.8426L43.2038 45.0424L41.3493 37.4297H32.1327L31.7403 42.703C31.4521 41.8568 30.6641 41.2507 29.7369 41.2507C29.1491 41.2507 28.619 41.4941 28.2347 41.8862C27.8503 42.2783 27.6133 42.819 27.6133 43.4169C27.6133 44.0148 27.8503 44.5556 28.2347 44.9476C28.619 45.3397 29.1491 45.5831 29.7369 45.5831Z" fill="white"/>
<path d="M28.6055 35.8824L29.339 41.2897C29.4671 41.2636 29.6 41.2505 29.7361 41.2505C30.2054 41.2505 30.641 41.4057 30.9917 41.6704L32.0807 46.9731C32.6044 48.8779 34.3084 50.1946 36.2478 50.1946H41.0715C42.7931 50.1946 44.0566 48.5463 43.6419 46.8424L43.203 45.0422L41.6624 44.2597C40.6567 43.7483 39.4524 43.861 38.5555 44.5521L35.6985 46.7493C34.6943 47.522 33.245 47.0989 32.795 45.9014L32.015 42.9413C32.4619 42.7485 32.7533 42.2683 32.6877 41.7439L32.4346 39.7819C32.3001 38.738 32.9471 37.7921 33.884 37.5128C34.3708 38.1744 35.1444 38.6024 36.0172 38.6024C36.89 38.6024 37.7292 38.1368 38.2112 37.4295H38.5731C39.0536 38.1368 39.8559 38.6024 40.7656 38.6024C42.2373 38.6024 43.4305 37.3837 43.4305 35.8824C43.4305 34.3811 42.2373 33.1641 40.7656 33.1641C39.731 33.1641 38.8342 33.7652 38.3906 34.6441C37.9502 33.7652 37.0533 33.1641 36.0172 33.1641C34.981 33.1641 34.0858 33.7652 33.6438 34.6441C33.2017 33.7652 32.3049 33.1641 31.2703 33.1641C29.7986 33.1641 28.6055 34.3811 28.6055 35.8824Z" fill="#004D89"/>
<path d="M30.2586 44.2264H29.5779C29.3505 44.2264 29.168 44.0385 29.168 43.8082C29.168 43.5778 29.3377 43.4047 29.5523 43.39L29.4658 43.2364C29.3537 43.0355 29.421 42.779 29.618 42.6646C29.815 42.5503 30.0664 42.6189 30.1785 42.8198L30.6173 43.5991C30.691 43.7281 30.6894 43.8882 30.6173 44.0173C30.5436 44.1463 30.4091 44.2264 30.2618 44.2264H30.2586Z" fill="#004B82"/>
<path d="M39.0517 44.412C38.8916 44.412 38.7362 44.3254 38.653 44.1718C38.5313 43.9464 38.6097 43.6638 38.8307 43.5396L39.7564 43.0152L38.5569 40.6481C38.4416 40.4194 38.5281 40.1384 38.7523 40.0208C38.9765 39.9032 39.2519 39.9914 39.3672 40.2201L40.7701 42.9891C40.8838 43.2129 40.8022 43.4874 40.586 43.6099L39.2743 44.3532C39.2039 44.3924 39.1286 44.412 39.0533 44.412H39.0517Z" fill="#004B82"/>
<path d="M36.739 42.4886C37.0468 42.4886 37.2963 42.234 37.2963 41.9201C37.2963 41.6061 37.0468 41.3516 36.739 41.3516C36.4312 41.3516 36.1816 41.6061 36.1816 41.9201C36.1816 42.234 36.4312 42.4886 36.739 42.4886Z" fill="#004D89"/>
<path d="M41.3556 42.1559C41.6156 42.1559 41.8264 41.9409 41.8264 41.6756C41.8264 41.4103 41.6156 41.1953 41.3556 41.1953C41.0956 41.1953 40.8848 41.4103 40.8848 41.6756C40.8848 41.9409 41.0956 42.1559 41.3556 42.1559Z" fill="#004D89"/>
<path d="M34.5662 46.7056C35.4657 46.7056 36.1949 45.9618 36.1949 45.0442C36.1949 44.1266 35.4657 43.3828 34.5662 43.3828C33.6667 43.3828 32.9375 44.1266 32.9375 45.0442C32.9375 45.9618 33.6667 46.7056 34.5662 46.7056Z" fill="#FFB400"/>
</g>
</g>
<g clip-path="url(#clip2_605_1678)">
<path d="M84.5312 88.039L72.8254 78.206V23.3389C72.8254 19.374 69.6072 16.1484 65.6494 16.1484C64.9253 16.1484 64.3379 16.7372 64.3379 17.4629C64.3379 18.1886 64.9253 18.7774 65.6494 18.7774C68.1591 18.7774 70.2005 20.8234 70.2005 23.3389V78.8202C70.2005 79.2094 70.3723 79.5772 70.6689 79.8275L80.0796 87.7319H72.8371C72.1131 87.7319 71.5257 88.3207 71.5257 89.0464C71.5257 89.7721 72.1131 90.3608 72.8371 90.3608H83.6861C84.2365 90.3608 84.7303 90.0127 84.9196 89.4963C85.1069 88.9779 84.9508 88.3931 84.5292 88.039H84.5312Z" fill="#CCDAFC"/>
<path d="M71.5144 92.6416C70.7903 92.6416 70.2029 93.2304 70.2029 93.9561C70.2029 96.4715 68.1615 98.5176 65.6517 98.5176H9.17607C6.6663 98.5176 4.62491 96.4715 4.62491 93.9561V23.3389C4.62491 20.8234 6.6663 18.7774 9.17607 18.7774H54.0065C54.7305 18.7774 55.318 18.1886 55.318 17.4629C55.318 16.7372 54.7305 16.1484 54.0065 16.1484H9.17607C5.2182 16.1484 2 19.374 2 23.3389V93.9561C2 97.921 5.2182 101.148 9.17607 101.148H65.6517C69.6077 101.148 72.8278 97.9229 72.8278 93.9561C72.8278 93.2304 72.2404 92.6416 71.5163 92.6416H71.5144Z" fill="#CCDAFC"/>
</g>
<defs>
<linearGradient id="paint0_linear_605_1678" x1="191.121" y1="83.1527" x2="222.664" y2="83.1527" gradientUnits="userSpaceOnUse">
<stop stop-color="#DAE3FE"/>
<stop offset="1" stop-color="#E9EFFD"/>
</linearGradient>
<linearGradient id="paint1_linear_605_1678" x1="90.4759" y1="131.318" x2="173.555" y2="183.885" gradientUnits="userSpaceOnUse">
<stop stop-color="#A737D5"/>
<stop offset="1" stop-color="#EF497A"/>
</linearGradient>
<linearGradient id="paint2_linear_605_1678" x1="122.848" y1="139.7" x2="113.474" y2="152.869" gradientUnits="userSpaceOnUse">
<stop stop-color="#FECA4D"/>
<stop offset="1" stop-color="#FECA4D"/>
</linearGradient>
<linearGradient id="paint3_linear_605_1678" x1="241.078" y1="174.264" x2="256.2" y2="177.981" gradientUnits="userSpaceOnUse">
<stop stop-color="#4F52FF"/>
<stop offset="1" stop-color="#4042E2"/>
</linearGradient>
<linearGradient id="paint4_linear_605_1678" x1="171.057" y1="143.541" x2="192.899" y2="157.162" gradientUnits="userSpaceOnUse">
<stop stop-color="#4F52FF"/>
<stop offset="1" stop-color="#4042E2"/>
</linearGradient>
<clipPath id="clip0_605_1678">
<rect width="86" height="88" fill="white" transform="translate(0 15.1484)"/>
</clipPath>
<clipPath id="clip1_605_1678">
<rect width="43" height="48.125" fill="white" transform="translate(15.2578 30.4766)"/>
</clipPath>
<clipPath id="clip2_605_1678">
<rect width="83" height="85" fill="white" transform="translate(2 16.1484)"/>
</clipPath>
</defs>
</svg>
